<svg width="282" height="34" viewBox="0 0 282 34" fill="none" xmlns="http://www.w3.org/2000/svg">
<path d="M34.7246 0.322754V14.4199C35.1288 14.0946 35.3713 13.9223 35.5869 13.7245C37.2238 12.2125 39.1684 11.3768 41.4723 11.4682C42.7163 11.5171 44.0321 11.5065 45.1773 11.8914C47.7484 12.7591 48.8106 14.8219 48.8869 17.2398C49.0059 20.9911 48.8667 24.7509 48.9498 28.5044C48.9745 29.5911 49.3787 30.6735 49.6167 31.7559C49.6661 31.9814 49.7492 32.2004 49.8435 32.5024H44.3218C45.7881 27.5772 44.863 22.5563 44.9775 17.5907C45.0202 15.7065 43.8054 14.4263 41.8046 13.8968C39.6108 13.3162 37.5674 13.799 35.6003 14.7198C35.0188 14.992 34.7358 15.4024 34.747 16.1255C34.8009 20.4829 34.7583 24.8402 34.7942 29.1976C34.7987 29.8016 35.0502 30.4098 35.2231 31.0074C35.3556 31.4688 35.5442 31.9154 35.7463 32.479H30.265C30.283 32.2684 30.2426 32.0685 30.3212 31.9346C31.2733 30.3141 31.1341 28.5469 31.1318 26.7925C31.1206 19.5663 31.1475 12.338 31.1026 5.11184C31.0959 4.19103 30.8511 3.24257 30.5412 2.36216C30.0742 1.03091 30.0764 0.971365 31.5001 0.813997C32.5465 0.699161 33.5816 0.503514 34.7291 0.327007L34.7246 0.322754Z" fill="#4A1613"/>
<path d="M260.768 1.09226C262.351 0.847701 263.794 0.626536 265.355 0.38623V14.2665C266.862 12.8927 268.38 11.8464 270.302 11.5572C274.077 10.9873 277.997 11.9273 279.834 15.6998C281.909 19.9658 281.824 24.2105 279.08 28.2021C277.209 30.9241 274.431 32.3064 270.973 32.3383C267.949 32.3659 264.924 32.3447 261.735 32.3447C261.735 31.8534 261.735 31.443 261.735 31.0347C261.735 22.5666 261.72 14.0985 261.751 5.63254C261.756 4.33957 261.574 3.12528 260.99 1.95991C260.884 1.74938 260.869 1.49844 260.768 1.09439V1.09226ZM265.382 22.607C265.382 24.3083 265.483 26.0138 265.353 27.7066C265.229 29.3228 265.618 30.2883 267.351 31.0836C270.778 32.6552 274.631 31.6705 276.347 28.4062C277.737 25.7629 277.896 22.9621 277.38 20.1168C277.056 18.3347 276.32 16.6419 274.894 15.4212C272.518 13.3861 268.905 13.2181 266.155 14.6961C265.775 14.9002 265.427 15.4914 265.413 15.9125C265.342 18.1412 265.38 20.3762 265.38 22.607H265.382Z" fill="#4A1613"/>
<path d="M100.506 1.88572V7.81679C99.9696 7.18732 99.6104 6.77476 99.2623 6.35369C96.0557 2.48967 93.9764 1.7645 89.0408 2.62365C86.9076 2.99368 85.4683 4.4674 85.1292 6.57061C84.7946 8.64403 85.1135 10.7323 87.1861 11.8552C89.6314 13.1779 92.299 14.1285 94.8409 15.296C96.3252 15.9787 97.9038 16.5932 99.1702 17.5545C101.573 19.3791 101.928 22.0267 101.616 24.7317C101.411 26.5074 100.747 28.1555 99.552 29.6208C98.0295 31.4879 95.9996 32.5831 93.6351 32.7128C90.5835 32.8787 87.5072 32.6299 84.4421 32.5703C83.5551 32.5533 82.6659 32.5682 81.7497 32.5682V25.2315C82.5334 26.3564 83.0611 27.2645 83.7392 28.0556C85.3043 29.8781 86.9368 31.6942 89.5371 32.1705C92.8694 32.783 97.3087 31.6899 98.0744 27.6941C98.7301 24.2681 98.3237 21.999 94.5894 20.1085C92.4899 19.0431 90.1883 18.337 87.9877 17.446C85.4323 16.4125 82.9825 15.2365 82.1045 12.4464C81.1659 9.4649 81.5791 6.65567 83.7864 4.31004C85.1067 2.90649 86.9391 1.99205 88.9398 1.924C92.7549 1.79215 96.5789 1.88572 100.504 1.88572H100.506Z" fill="#4A1613"/>
<path d="M160.472 32.5041H154.773C156.383 29.6503 155.624 26.6496 155.726 23.7256C155.829 20.7526 155.806 17.7711 155.712 14.796C155.681 13.8454 155.24 12.9076 154.978 11.9208H159.583V14.3239C161.566 12.3696 163.843 11.5615 166.401 11.2361C169.82 10.8001 173.296 13.2372 173.514 16.5207C173.725 19.6893 173.667 22.8728 173.777 26.0478C173.851 28.1978 173.285 30.4243 174.783 32.4999H168.978C169.185 31.9066 169.401 31.3643 169.56 30.8071C169.704 30.3095 169.877 29.7949 169.881 29.2866C169.908 25.7777 169.874 22.2688 169.901 18.76C169.933 14.7811 166.91 13.1054 163.279 13.8284C162.253 14.0326 161.243 14.3898 160.3 14.8236C159.961 14.9789 159.653 15.5637 159.648 15.955C159.603 20.5612 159.577 25.1695 159.657 29.7757C159.673 30.6668 160.176 31.5514 160.472 32.502V32.5041Z" fill="#4A1613"/>
<path d="M239.377 11.9188H244.05V13.0693C244.05 17.1077 244.032 21.1461 244.066 25.1845C244.072 25.9416 244.256 26.705 244.418 27.4536C245 30.1288 248.139 30.8242 250.434 30.5222C250.798 30.4733 251.161 30.4138 251.518 30.3266C253.878 29.7567 254.325 29.2038 254.325 26.8836C254.325 23.3769 254.37 19.868 254.303 16.3634C254.276 14.913 254.009 13.4691 253.842 11.9528H258.089C258.628 18.7133 257.424 25.5439 258.962 32.3043H255.107C254.918 31.4707 254.72 30.6073 254.509 29.6759C253.696 30.3245 253.005 31.0348 252.167 31.5111C249.473 33.0401 246.596 33.3527 243.691 32.1427C241.472 31.2176 240.491 29.3824 240.423 27.1729C240.338 24.4125 240.39 21.648 240.408 18.8834C240.421 16.5675 240.581 14.241 239.379 11.9146L239.377 11.9188Z" fill="#4A1613"/>
<path d="M0 7.65505V1.96854H27.496V7.71247C26.5327 6.61089 25.7401 5.58375 24.8149 4.67569C23.5507 3.43376 22.3628 2.06211 20.16 2.33006C18.8082 2.49593 17.416 2.35983 15.9699 2.35983C15.9452 2.80429 15.9115 3.14667 15.9115 3.49118C15.9093 12.0273 15.9003 20.5613 15.9273 29.0975C15.9273 29.7057 16.1585 30.3203 16.327 30.9221C16.4662 31.4155 16.6705 31.894 16.8838 32.4852H10.7649C10.7424 32.3257 10.6773 32.1917 10.7222 32.1215C11.818 30.4202 11.5867 28.5339 11.5867 26.6796C11.589 19.0302 11.5867 11.3787 11.5867 3.72936V2.36408C9.57926 2.36408 7.67509 2.26839 5.79337 2.41725C5.16463 2.46616 4.50894 3.06161 4.01045 3.54222C2.66764 4.83731 1.40343 6.20471 0 7.65505Z" fill="#4A1613"/>
<path d="M152.107 11.8782C152.605 18.8067 151.512 25.6564 152.89 32.4956H149.08C148.878 31.6364 148.666 30.7347 148.449 29.8182C147.526 30.4902 146.623 31.3111 145.572 31.881C142.92 33.3143 140.156 33.4504 137.491 31.9426C135.203 30.6476 134.363 28.5316 134.188 26.0988C133.846 21.3139 135.878 17.452 139.345 14.1601C140.152 13.3966 141.09 12.7565 141.991 12.0867C142.175 11.9505 142.464 11.8889 142.705 11.8867C145.806 11.874 148.909 11.8782 152.107 11.8782ZM148.339 14.6939C145.662 14.6939 143.163 14.6683 140.664 14.7215C140.313 14.73 139.853 15.0469 139.649 15.3446C137.152 18.9811 136.734 22.9153 138.113 26.9856C138.753 28.8782 140.028 30.3754 142.283 30.8007C144.306 31.1835 146.008 30.4583 147.636 29.4418C148.125 29.1377 148.37 28.791 148.359 28.1786C148.312 25.7032 148.339 23.2257 148.339 20.7504C148.339 18.7769 148.339 16.8034 148.339 14.6917V14.6939Z" fill="#4A1613"/>
<path d="M123.454 11.4423C127.55 11.0978 130.483 13.6008 131.578 16.2824C132.62 18.8301 132.49 21.4585 131.657 24.0083C130.251 28.3189 127.444 31.3961 122.671 32.5912C119.278 33.4398 116.116 33.0229 113.442 30.8092C111.87 29.5098 111.048 27.6873 110.866 25.7266C110.554 22.3921 111.219 19.2362 113.32 16.4589C115.77 13.2244 118.983 11.3189 123.454 11.438V11.4423ZM114.697 22.5601C114.555 24.8802 115.317 27.3428 116.962 29.5098C119.376 32.6891 122.688 33.0506 125.383 30.033C126.412 28.8803 127.103 27.3364 127.55 25.8627C128.722 22.0178 128.251 18.3069 125.882 14.9108C123.551 11.5677 119.603 11.2466 117.028 14.6853C115.326 16.9565 114.665 19.4638 114.695 22.5601H114.697Z" fill="#4A1613"/>
<path d="M230.015 7.95505C229.189 7.00233 228.441 6.20273 227.763 5.34997C226.131 3.29355 223.934 2.40464 221.265 2.35147C218.723 2.30043 216.369 2.6896 214.286 4.23563C212.128 5.83696 210.991 8.01459 210.401 10.4091C209.249 15.0876 209.204 19.8299 210.652 24.4553C211.654 27.6537 213.572 30.3119 217.232 31.2731C221.927 32.5087 227.247 31.3561 230.249 27.122C230.399 26.9094 230.707 26.7945 230.943 26.6329C230.904 26.9264 230.967 27.2837 230.815 27.5048C228.412 31.0009 224.963 32.6703 220.584 32.783C218.074 32.8468 215.622 32.6916 213.322 31.6432C208.89 29.6208 206.411 26.1225 205.429 21.712C204.455 17.3312 204.843 13.0121 207.149 8.98644C209.307 5.21812 212.642 2.80231 217.081 2.15795C219.928 1.74539 222.877 1.94317 225.78 1.89C227.161 1.86448 228.544 1.88575 230.013 1.88575V7.95717L230.015 7.95505Z" fill="#4A1613"/>
<path d="M70.4896 18.9472H55.0496C54.7398 22.5581 55.1282 26.033 58.2046 28.3233C62.2532 31.3388 66.4343 30.6519 70.4896 27.4365C70.0293 29.2526 69.0301 30.4584 67.7479 31.3537C65.5294 32.9019 62.9583 33.2443 60.2637 32.8445C55.0946 32.0789 52.4628 29.0697 51.7645 24.3019C51.1874 20.3592 51.9733 16.7525 54.8835 13.7944C56.4059 12.2463 58.4067 11.4509 60.7262 11.4382C62.709 11.4275 64.6469 11.4679 66.3714 12.5695C68.7112 14.0624 70.0024 16.1635 70.4919 18.9472H70.4896ZM66.3063 18.2092C65.6394 13.1097 62.8842 11.6551 60.3647 11.9592C57.6162 12.2909 55.4359 14.5621 55.2248 18.2092H66.3063Z" fill="#4A1613"/>
<path d="M195.17 18.9469C193.059 18.9469 191.157 18.9469 189.258 18.9469C186.453 18.9469 183.646 18.9851 180.842 18.9256C179.833 18.9043 179.537 19.2297 179.591 20.1484C179.753 22.9938 180.202 25.7371 182.452 27.8722C184.821 30.1221 187.708 30.6729 190.825 29.7797C192.291 29.3608 193.616 28.4953 195.056 27.8105C194.91 29.0418 194.086 30.0775 193.093 30.8856C189.262 34.0053 182.47 33.5842 179.16 30.1413C177.402 28.3124 176.508 26.1262 176.42 23.67C176.344 21.4945 176.333 19.3254 177.274 17.252C178.769 13.9515 181.16 11.8292 185.092 11.4294C188.115 11.1231 190.717 11.8249 192.828 13.9068C194.193 15.253 194.871 16.9266 195.172 18.9469H195.17ZM190.942 18.2026C190.713 14.6788 188.723 12.0248 185.932 11.9227C182.38 11.7951 180.15 14.7873 179.903 18.2026H190.942Z" fill="#4A1613"/>
<path d="M107.973 0.290527C107.973 0.983797 107.973 1.40486 107.973 1.82593C107.973 9.90698 107.964 17.988 107.98 26.0691C107.984 28.1936 107.6 30.3733 109.091 32.4574H103.188C104.742 29.914 104.025 27.1537 104.07 24.4848C104.167 18.6388 104.097 12.7885 104.102 6.94038C104.102 4.97541 104.288 2.98705 103.125 1.01144C104.784 0.764758 106.291 0.541465 107.973 0.290527Z" fill="#4A1613"/>
<path d="M238.15 32.3085H232.321C233.594 30.4031 233.201 28.3637 233.208 26.3817C233.235 19.8318 233.219 13.2798 233.217 6.72988C233.217 4.84359 233.45 2.92328 232.213 1.14119C233.89 0.868986 235.401 0.624428 237.09 0.350098V1.68134C237.09 10.0389 237.09 18.3942 237.09 26.7518C237.09 28.5998 236.825 30.4861 238.148 32.3107L238.15 32.3085Z" fill="#4A1613"/>
</svg>
