<svg width="465" height="54" viewBox="0 0 465 54" fill="none" xmlns="http://www.w3.org/2000/svg">
<path d="M57.7727 0.205078V23.3534C58.4396 22.8191 58.8398 22.5363 59.1955 22.2115C61.8965 19.7287 65.1051 18.3564 68.9065 18.5065C70.9591 18.5868 73.1303 18.5694 75.0199 19.2014C79.2623 20.6262 81.0148 24.0134 81.1408 27.9837C81.3371 34.1436 81.1074 40.3174 81.2445 46.4807C81.2852 48.2651 81.9522 50.0426 82.3449 51.82C82.4264 52.1901 82.5635 52.5498 82.7191 53.0457H73.6083C76.0277 44.9582 74.5012 36.7137 74.6902 28.5599C74.7606 25.466 72.7561 23.3639 69.4549 22.4944C65.835 21.5411 62.4634 22.3337 59.2177 23.8458C58.2581 24.2927 57.7912 24.9667 57.8098 26.154C57.8987 33.309 57.8283 40.4641 57.8876 47.6191C57.895 48.6109 58.3099 49.6096 58.5952 50.5908C58.8138 51.3486 59.1251 52.0819 59.4585 53.0073H50.4144C50.444 52.6615 50.3773 52.3333 50.507 52.1133C52.078 49.4524 51.8482 46.5506 51.8445 43.6697C51.826 31.804 51.8705 19.9347 51.7964 8.06901C51.7853 6.55698 51.3814 4.99956 50.8701 3.55388C50.0994 1.36791 50.1031 1.27013 52.4522 1.01172C54.1788 0.823158 55.8868 0.501896 57.7801 0.212062L57.7727 0.205078Z" fill="#F2D1D8"/>
<path d="M430.748 1.46891C433.36 1.06733 435.742 0.704164 438.318 0.30957V23.1017C440.804 20.8459 443.308 19.1278 446.48 18.6529C452.708 17.7171 459.177 19.2605 462.208 25.4553C465.632 32.4602 465.491 39.4302 460.963 45.9846C457.877 50.4543 453.294 52.7241 447.588 52.7765C442.597 52.8219 437.606 52.787 432.345 52.787C432.345 51.9803 432.345 51.3064 432.345 50.6359C432.345 36.7309 432.319 22.8258 432.371 8.92428C432.378 6.80115 432.078 4.80724 431.115 2.89363C430.941 2.54793 430.915 2.13587 430.748 1.4724V1.46891ZM438.362 36.7972C438.362 39.5908 438.529 42.3914 438.314 45.171C438.11 47.8249 438.751 49.4103 441.611 50.7163C447.265 53.2968 453.623 51.68 456.454 46.3199C458.747 41.9793 459.011 37.3804 458.158 32.7081C457.625 29.7819 456.41 27.0022 454.057 24.9978C450.137 21.656 444.175 21.3802 439.637 23.8071C439.01 24.1423 438.436 25.1131 438.414 25.8045C438.295 29.4641 438.358 33.1341 438.358 36.7972H438.362Z" fill="#F2D1D8"/>
<path d="M166.313 2.77261V12.5117C165.428 11.4781 164.835 10.8007 164.261 10.1093C158.97 3.76433 155.539 2.57357 147.395 3.98432C143.875 4.59193 141.5 7.01187 140.941 10.4654C140.389 13.8701 140.915 17.2992 144.335 19.143C148.37 21.315 152.771 22.8759 156.965 24.793C159.415 25.9139 162.019 26.9231 164.109 28.5015C168.073 31.4976 168.659 35.8451 168.144 40.2869C167.807 43.2027 166.71 45.909 164.739 48.315C162.227 51.3809 158.877 53.1793 154.976 53.3923C149.941 53.6647 144.865 53.2561 139.807 53.1583C138.344 53.1304 136.876 53.1548 135.365 53.1548V41.1075C136.658 42.9548 137.529 44.4458 138.648 45.7449C141.23 48.7375 143.924 51.7196 148.214 52.5018C153.712 53.5075 161.037 51.7127 162.301 45.1512C163.383 39.5257 162.712 35.7997 156.551 32.6954C153.086 30.9459 149.289 29.7865 145.658 28.3234C141.441 26.6263 137.399 24.6952 135.95 20.1138C134.401 15.218 135.083 10.6051 138.725 6.75346C140.904 4.44876 143.927 2.94721 147.229 2.83546C153.523 2.61896 159.833 2.77261 166.31 2.77261H166.313Z" fill="#F2D1D8"/>
<path d="M265.259 53.0482H255.855C258.512 48.362 257.26 43.4348 257.426 38.6333C257.597 33.7516 257.56 28.8558 257.404 23.9705C257.352 22.4096 256.626 20.8697 256.193 19.2494H263.792V23.1953C267.063 19.9862 270.82 18.6592 275.04 18.125C280.683 17.4091 286.419 21.4109 286.778 26.8025C287.126 32.0056 287.03 37.2331 287.212 42.4466C287.334 45.977 286.4 49.6331 288.872 53.0412H279.294C279.635 52.067 279.99 51.1765 280.254 50.2616C280.491 49.4445 280.776 48.5995 280.783 47.7649C280.828 42.0031 280.772 36.2413 280.817 30.4796C280.869 23.9461 275.882 21.1944 269.89 22.3817C268.197 22.7169 266.53 23.3036 264.974 24.0159C264.414 24.2709 263.907 25.2311 263.899 25.8737C263.825 33.4373 263.781 41.0044 263.914 48.568C263.94 50.0312 264.77 51.4838 265.259 53.0447V53.0482Z" fill="#F2D1D8"/>
<path d="M395.452 19.2462H403.162V21.1354C403.162 27.7667 403.133 34.3979 403.188 41.0292C403.2 42.2723 403.503 43.526 403.77 44.7551C404.73 49.148 409.909 50.2899 413.696 49.7941C414.296 49.7137 414.896 49.616 415.486 49.4728C419.38 48.5369 420.117 47.629 420.117 43.8193C420.117 38.061 420.191 32.2993 420.08 26.5445C420.035 24.1629 419.595 21.7919 419.32 19.3021H426.327C427.216 30.4031 425.23 41.6193 427.768 52.7203H421.406C421.095 51.3515 420.769 49.9337 420.421 48.4042C419.08 49.4693 417.938 50.6356 416.556 51.4178C412.11 53.9286 407.364 54.4419 402.57 52.4549C398.909 50.9359 397.29 47.9224 397.179 44.2942C397.038 39.7616 397.123 35.222 397.153 30.6825C397.175 26.8797 397.438 23.0595 395.456 19.2393L395.452 19.2462Z" fill="#F2D1D8"/>
<path d="M0.476562 12.2457V2.9082H45.8455V12.34C44.256 10.5312 42.9481 8.84456 41.4216 7.35349C39.3356 5.31418 37.3756 3.06185 33.7409 3.50184C31.5105 3.77421 29.2133 3.55073 26.8272 3.55073C26.7865 4.28055 26.7309 4.84276 26.7309 5.40846C26.7272 19.4253 26.7124 33.4386 26.7568 47.4553C26.7568 48.4541 27.1384 49.4632 27.4163 50.4515C27.646 51.2616 27.9832 52.0473 28.3352 53.0181H18.2388C18.2017 52.7562 18.0943 52.5362 18.1684 52.4209C19.9765 49.6274 19.5949 46.53 19.5949 43.485C19.5986 30.9243 19.5949 18.3602 19.5949 5.79956V3.55771C16.2825 3.55771 13.1406 3.40057 10.0357 3.64501C8.99829 3.72533 7.9164 4.70308 7.09387 5.49227C4.87822 7.61888 2.79225 9.86422 0.476562 12.2457Z" fill="#F2D1D8"/>
<path d="M251.454 19.1798C252.277 30.5567 250.472 41.8043 252.747 53.0345H246.46C246.126 51.6238 245.778 50.1432 245.419 48.6381C243.896 49.7416 242.406 51.0895 240.672 52.0254C236.297 54.3789 231.736 54.6024 227.338 52.1266C223.562 50 222.176 46.5255 221.888 42.5307C221.324 34.6737 224.677 28.3323 230.398 22.9267C231.728 21.6731 233.277 20.622 234.763 19.522C235.067 19.2986 235.544 19.1973 235.941 19.1938C241.058 19.1728 246.178 19.1798 251.454 19.1798ZM245.237 23.8032C240.821 23.8032 236.697 23.7613 232.573 23.8486C231.995 23.8626 231.235 24.3829 230.898 24.8717C226.778 30.843 226.089 37.3032 228.364 43.9868C229.42 47.0947 231.524 49.553 235.244 50.2514C238.583 50.88 241.391 49.6892 244.077 48.0201C244.885 47.5207 245.289 46.9515 245.27 45.9458C245.193 41.8812 245.237 37.813 245.237 33.7484C245.237 30.5078 245.237 27.2672 245.237 23.7997V23.8032Z" fill="#F2D1D8"/>
<path d="M204.18 18.4645C210.938 17.8988 215.777 22.0088 217.585 26.4122C219.305 30.5956 219.09 34.9117 217.715 39.0985C215.396 46.1768 210.764 51.2297 202.887 53.1922C197.289 54.5854 192.072 53.901 187.659 50.2659C185.066 48.1323 183.71 45.1397 183.41 41.9201C182.895 36.4446 183.991 31.2625 187.459 26.702C191.501 21.3907 196.803 18.2619 204.18 18.4575V18.4645ZM189.73 36.7205C189.497 40.5303 190.753 44.574 193.469 48.1323C197.452 53.3528 202.917 53.9464 207.363 48.9913C209.06 47.0987 210.201 44.5635 210.938 42.1435C212.872 35.83 212.094 29.7366 208.186 24.1599C204.34 18.6705 197.826 18.1432 193.576 23.7897C190.768 27.5191 189.679 31.6362 189.727 36.7205H189.73Z" fill="#F2D1D8"/>
<path d="M380.006 12.7376C378.642 11.1731 377.409 9.86016 376.29 8.45988C373.596 5.08314 369.972 3.6235 365.567 3.5362C361.373 3.45239 357.49 4.09142 354.052 6.63009C350.491 9.25954 348.616 12.8353 347.642 16.7673C345.741 24.4496 345.667 32.2367 348.057 39.8318C349.709 45.0837 352.873 49.4487 358.913 51.0271C366.66 53.0559 375.437 51.1633 380.391 44.2107C380.639 43.8615 381.147 43.673 381.536 43.4076C381.473 43.8895 381.577 44.4761 381.325 44.8393C377.36 50.5801 371.669 53.3213 364.444 53.5064C360.302 53.6111 356.256 53.3562 352.462 51.6347C345.148 48.3138 341.058 42.5695 339.439 35.3271C337.831 28.1337 338.472 21.0415 342.277 14.4312C345.837 8.24338 351.339 4.27649 358.664 3.21843C363.363 2.54098 368.227 2.86574 373.018 2.77844C375.297 2.73653 377.579 2.77145 380.002 2.77145V12.741L380.006 12.7376Z" fill="#F2D1D8"/>
<path d="M116.786 30.7871H91.3096C90.7983 36.7165 91.4393 42.4224 96.5153 46.1833C103.196 51.1349 110.094 50.007 116.786 44.7271C116.026 47.7093 114.378 49.6892 112.262 51.1593C108.601 53.7015 104.359 54.2637 99.9129 53.6072C91.3837 52.3501 87.0413 47.4089 85.8891 39.5799C84.9368 33.1058 86.2336 27.1834 91.0354 22.3261C93.5475 19.7839 96.8487 18.4779 100.676 18.457C103.948 18.4395 107.145 18.5059 109.991 20.3147C113.851 22.7661 115.982 26.2161 116.79 30.7871H116.786ZM109.883 29.5754C108.783 21.2017 104.237 18.8131 100.08 19.3125C95.5445 19.8572 91.9469 23.5867 91.5986 29.5754H109.883Z" fill="#F2D1D8"/>
<path d="M322.509 30.7877C319.026 30.7877 315.888 30.7877 312.754 30.7877C308.126 30.7877 303.495 30.8506 298.867 30.7528C297.203 30.7179 296.714 31.2521 296.803 32.7607C297.07 37.4329 297.811 41.9376 301.524 45.4435C305.432 49.138 310.197 50.0425 315.34 48.5758C317.759 47.8879 319.945 46.4667 322.32 45.3423C322.079 47.3641 320.72 49.0647 319.082 50.3917C312.761 55.5144 301.553 54.823 296.092 49.1695C293.191 46.1664 291.716 42.5766 291.572 38.5434C291.446 34.9711 291.427 31.4093 292.98 28.0046C295.447 22.5851 299.393 19.1001 305.881 18.4436C310.868 17.9407 315.162 19.0931 318.645 22.5117C320.897 24.7221 322.016 27.4703 322.513 30.7877H322.509ZM315.532 29.5655C315.155 23.7793 311.872 19.4213 307.266 19.2537C301.405 19.0442 297.726 23.9574 297.318 29.5655H315.532Z" fill="#F2D1D8"/>
<path d="M178.634 0.152344C178.634 1.29073 178.634 1.98214 178.634 2.67355C178.634 15.9431 178.619 29.2126 178.645 42.4821C178.653 45.9706 178.019 49.5498 180.479 52.972H170.739C173.302 48.7956 172.121 44.263 172.195 39.8805C172.354 30.2811 172.239 20.6747 172.246 11.0718C172.246 7.84517 172.554 4.58017 170.635 1.33612C173.373 0.931054 175.859 0.564397 178.634 0.152344Z" fill="#F2D1D8"/>
<path d="M393.428 52.7274H383.81C385.91 49.5986 385.262 46.2498 385.273 42.9953C385.318 32.24 385.292 21.4812 385.288 10.7259C385.288 7.62855 385.673 4.47529 383.632 1.54902C386.4 1.10204 388.893 0.700465 391.679 0.25V2.43598C391.679 16.1594 391.679 29.8794 391.679 43.6029C391.679 46.6374 391.242 49.7348 393.424 52.7309L393.428 52.7274Z" fill="#F2D1D8"/>
</svg>
